<svg xmlns="http://www.w3.org/2000/svg" viewBox="0 0 1280 320" width="1280" height="320" role="img" aria-label="Pumperly: Fuel and EV route planner, self-hosted"><defs><clipPath id="r"><rect width="1280" height="320" rx="20"/></clipPath></defs><g clip-path="url(#r)"><rect width="1280" height="320" fill="#10231c"/><rect x="910" y="276" width="200" height="22" rx="6" fill="#0a1712"/><rect x="930" y="50" width="160" height="232" rx="22" fill="#34d399"/><rect x="930" y="50" width="160" height="46" rx="22" fill="#10b981"/><rect x="930" y="80" width="160" height="16" fill="#10b981"/><rect x="952" y="112" width="116" height="56" rx="8" fill="#062e22"/><path transform="scale(0.25)" fill="#fbbf24"  d="m3935 590v18h-62v-18h19v-38h-19v-14q8 0 18-4 9-4 17-9h8v65zm12 18v-24h26v24zm52-35h24v-17q4-5 7-12 4-7 6-12h10v41h11v18h-11v17h-23v-17h-40v-18q6-9 13-22 6-14 10-27h23q-1 6-5 16-5 9-12 18-7 9-13 15zm91-27l-1 12q0 0 2-1 2-2 6-3 4-1 9-1 14 0 21 7 8 8 8 21 0 8-4 14-4 7-12 11-8 3-18 3-17 0-27-7-9-8-9-21h21q0 5 3 9 3 3 10 3 6 0 9-4 3-3 3-8 0-6-3-9-3-4-9-4-5 0-7 2-2 1-4 3-1 1-1 1l-19-2 4-47h57v21zm125 19q0 23-9 34-8 10-27 10-15 0-24-7-9-7-9-20h22q0 5 3 8 3 3 8 3 6 0 9-4 3-4 3-10v-7q-3 3-8 5-5 1-9 1-9 0-15-3-7-3-11-8-4-6-4-14 0-14 10-21 9-8 25-8 19 0 27 10 9 10 9 31zm-47-13q0 6 2 9 4 3 9 3 6 0 9-3 3-3 3-9 0-5-3-9-3-3-9-3-5 0-8 3-3 3-3 9z"/><circle cx="1010" cy="220" r="38" fill="#fff"/><path transform="translate(1010 220) scale(1.05)" d="M6 -30L-14 4H0L-6 30L14 -4H0Z" fill="#10b981"/><path d="M1090 130H1130Q1152 130 1152 152V250Q1152 282 1176 282" fill="none" stroke="#0a1712" stroke-width="12" stroke-linecap="round"/><path d="M1106 112h28v10h8v40h-8v8h-28z" fill="#e2e8f0"/><path d="M1120 104v-14" stroke="#e2e8f0" stroke-width="8" stroke-linecap="round"/><path transform="scale(0.5)" fill="#fff"  d="m169 330v-146h60q17 0 29 6 12 7 19 18 7 11 7 26 0 15-7 26-7 11-19 17-12 6-29 6h-40v-29h38q7 0 12-3 5-2 8-7 2-4 2-10 0-7-2-11-3-4-8-7-5-2-12-2h-22v116zm164 2q-11 0-19-5-8-4-13-14-4-9-4-21v-65h34v58q0 9 4 14 5 5 13 5 5 0 9-3 4-2 6-6 2-5 2-12v-56h34v103h-34v-28h5q-4 14-13 22-9 8-24 8zm84-2v-103h33v24h-2q3-9 8-15 5-6 11-9 7-2 14-2 12 0 21 6 9 7 10 20h-3q2-9 7-14 5-6 13-9 7-3 15-3 10 0 18 4 8 4 13 13 4 8 4 19v69h-34v-61q0-8-4-13-4-4-11-4-5 0-8 2-4 2-6 6-2 4-2 9v61h-32v-62q0-7-4-12-4-4-11-4-5 0-8 2-4 2-6 6-2 4-2 10v60zm181 41v-144h33v13q4-5 8-8 4-4 10-6 6-1 12-1 13 0 23 6 10 7 16 19 5 12 5 28 0 17-5 29-6 12-16 19-10 6-23 6-7 0-13-2-5-2-9-6-5-4-7-9h-1v56zm53-66q7 0 11-3 5-3 7-9 2-6 2-15 0-8-2-14-2-6-7-9-4-4-11-4-6 0-11 4-5 3-7 9-3 6-3 14 0 9 3 15 2 6 7 9 5 3 11 3zm118 27q-16 0-28-7-12-6-19-19-6-12-6-28 0-15 6-27 7-13 19-20 12-6 27-6 12 0 21 3 10 4 17 11 7 8 10 17 4 10 4 22v9h-93v-20h78l-16 4q0-7-2-12-3-4-7-7-5-3-11-3-7 0-11 3-5 3-7 7-3 5-3 12v15q0 6 3 12 3 5 7 7 5 3 12 3 5 0 9-1 4-2 6-4 3-3 4-6h30q-1 10-9 18-7 8-17 13-11 4-24 4zm65-2v-103h33v18q3-10 9-14 6-5 16-5 3 0 5 1 2 0 5 0v27q-2 0-6 0-4 0-8 0-6 0-10 3-5 2-8 8-2 5-2 12v53zm113-146v146h-34v-146zm22 187v-26h14q3 0 5-1 2-1 4-3 1-3 2-7l2-4-40-103h36l15 47q3 10 6 20 2 10 5 20h-10q3-10 6-20 2-10 5-20l16-47h35l-45 118q-3 9-8 15-4 5-11 8-6 3-15 3-5 0-11 0-6 0-11 0z"/><path transform="scale(0.25)" fill="#a7f3d0"  d="m337 880v-84h53v11h-40v27h36v11h-36v35zm89 1q-6 0-11-3-5-3-8-8-2-5-2-13v-40h12v38q0 7 4 11 3 4 10 4 4 0 7-2 3-2 5-5 2-4 2-9v-37h13v63h-12v-16h1q-3 9-8 13-5 4-13 4zm76 0q-10 0-16-4-7-4-11-11-3-7-3-17 0-10 3-17 4-8 10-12 7-4 16-4 5 0 10 2 5 1 9 5 4 4 7 10 2 6 2 15v4h-50v-9h44l-6 3q0-6-2-10-2-5-5-7-4-3-9-3-6 0-9 3-4 2-6 6-2 5-2 10v6q0 6 2 11 3 4 7 7 4 2 9 2 3 0 6-1 3-1 5-3 2-2 3-5l12 3q-1 5-5 8-4 4-9 6-5 2-12 2zm53-85v84h-12v-84zm66 85q-6 0-11-2-5-2-8-6-3-5-3-11 0-5 2-9 2-3 6-5 3-2 8-3 4-1 8-2 6 0 10-1 3 0 5-1 1-1 1-4 0-3-1-6-1-2-4-4-3-1-7-1-4 0-7 1-3 2-5 4-1 2-2 4l-12-3q2-6 6-9 4-4 9-6 6-1 11-1 4 0 8 1 5 1 8 3 4 2 7 7 2 4 2 11v42h-12v-9h-1q-1 3-3 5-3 2-7 4-3 1-8 1zm2-10q5 0 9-2 4-2 6-5 2-3 2-7v-8q-1 1-3 1-2 1-4 1-3 1-5 1-2 0-4 0-3 1-6 2-3 1-5 3-2 2-2 5 0 3 2 5 1 2 4 3 3 1 6 1zm58-28v37h-12v-63h12v15h-2q3-8 8-12 6-4 13-4 7 0 11 3 5 2 8 8 3 5 3 13v40h-13v-39q0-7-3-10-4-4-10-4-4 0-8 2-3 1-5 5-2 3-2 9zm81 38q-8 0-14-4-6-4-9-11-3-7-3-17 0-11 3-18 3-7 9-11 6-4 14-4 6 0 10 2 3 2 5 4 2 3 3 5h1v-31h12v84h-12v-10h-1q-1 2-3 5-2 2-6 4-3 2-9 2zm3-10q5 0 9-3 3-3 5-8 2-5 2-12 0-6-2-11-2-5-5-8-4-3-9-3-6 0-9 3-4 3-6 8-2 5-2 11 0 7 2 12 2 5 6 8 3 3 9 3zm77 9v-84h53v11h-40v25h37v11h-37v26h41v11zm94 0l-30-84h13l17 47q2 5 4 13 2 8 5 18h-2q3-10 5-18 2-8 4-13l16-47h14l-30 84zm88 0v-63h12v10h1q2-5 6-8 4-3 10-3 1 0 3 0 1 0 2 0v12q0 0-2 0-2-1-4-1-5 0-8 2-3 2-5 5-2 3-2 8v38zm72 1q-9 0-16-4-6-4-10-11-4-8-4-17 0-10 4-18 4-7 10-11 7-4 16-4 9 0 15 4 7 4 11 11 3 8 3 18 0 9-3 17-4 7-11 11-6 4-15 4zm0-10q5 0 9-3 4-3 6-8 2-5 2-11 0-6-2-11-2-6-6-9-4-3-9-3-6 0-10 3-3 3-5 9-2 5-2 11 0 6 2 11 2 5 5 8 4 3 10 3zm65 10q-7 0-12-3-4-3-7-8-3-5-3-13v-40h13v38q0 7 3 11 4 4 10 4 4 0 8-2 3-2 5-5 2-4 2-9v-37h12v63h-12v-16h1q-2 9-8 13-5 4-12 4zm75-64v10h-34v-10zm-25-15h12v61q0 4 2 5 2 2 5 2 1 0 3 0 1 0 3 0l2 10q-2 0-4 1-3 0-5 0-9 0-13-5-5-4-5-12zm65 79q-10 0-16-4-7-4-11-11-4-7-4-17 0-10 4-17 4-8 10-12 7-4 16-4 5 0 10 2 5 1 9 5 4 4 7 10 2 6 2 15v4h-51v-9h44l-5 3q0-6-2-10-2-5-6-7-3-3-8-3-6 0-9 3-4 2-6 6-2 5-2 10v6q0 6 2 11 2 4 6 7 4 2 10 2 3 0 6-1 3-1 5-3 2-2 3-5l12 3q-2 5-5 8-4 4-9 6-5 2-12 2zm71 23v-87h13v10h1q1-2 3-5 2-2 5-4 4-2 10-2 7 0 13 4 6 4 10 11 3 7 3 18 0 10-3 17-3 7-9 11-6 4-14 4-6 0-9-2-4-2-6-4-2-3-3-5h-1v34zm29-33q6 0 9-3 4-3 6-8 2-5 2-12 0-6-2-11-2-5-6-8-3-3-9-3-5 0-9 3-4 3-5 8-2 5-2 11 0 7 2 12 2 5 5 8 4 3 9 3zm56-75v84h-13v-84zm34 85q-6 0-11-2-5-2-7-6-3-5-3-11 0-5 2-9 2-3 5-5 4-2 8-3 5-1 9-2 6 0 9-1 4 0 5-1 2-1 2-4 0-3-1-6-2-2-4-4-3-1-7-1-4 0-7 1-3 2-5 4-2 2-3 4l-11-3q2-6 6-9 4-4 9-6 5-1 11-1 4 0 8 1 4 1 8 3 4 2 6 7 3 4 3 11v42h-13v-9q-1 3-4 5-2 2-6 4-4 1-9 1zm3-10q5 0 9-2 3-2 5-5 2-3 2-7v-8q-1 1-2 1-2 1-5 1-2 1-4 1-3 0-4 0-4 1-7 2-3 1-4 3-2 2-2 5 0 3 2 5 1 2 4 3 2 1 6 1zm58-28v37h-13v-63h12v15h-1q3-8 8-12 5-4 13-4 6 0 11 3 5 2 8 8 2 5 2 13v40h-12v-39q0-7-4-10-3-4-10-4-4 0-7 2-3 1-5 5-2 3-2 9zm70 0v37h-13v-63h12v15h-1q3-8 8-12 5-4 13-4 6 0 11 3 5 2 7 8 3 5 3 13v40h-12v-39q0-7-4-10-4-4-10-4-4 0-7 2-4 1-6 5-1 3-1 9zm84 38q-9 0-16-4-7-4-10-11-4-7-4-17 0-10 3-17 4-8 11-12 6-4 15-4 6 0 11 2 5 1 9 5 4 4 6 10 2 6 2 15v4h-50v-9h44l-6 3q0-6-2-10-2-5-5-7-4-3-9-3-5 0-9 3-4 2-6 6-2 5-2 10v6q0 6 3 11 2 4 6 7 4 2 9 2 4 0 7-1 2-1 5-3 2-2 3-5l11 3q-1 5-5 8-3 4-9 6-5 2-12 2zm41-1v-63h12v10h1q1-5 6-8 4-3 10-3 1 0 2 0 2 0 3 0v12q-1 0-3 0-2-1-3-1-5 0-8 2-4 2-6 5-2 3-2 8v38zm44 21l5-33h13l-9 33zm90-20q-7 0-13-2-5-2-8-6-4-3-5-9l12-2q1 4 5 7 3 2 9 2 6 0 9-2 4-3 4-6 0-3-2-5-2-2-7-3l-11-3q-8-2-13-6-4-4-4-11 0-6 3-10 3-4 9-7 5-2 12-2 7 0 12 2 5 2 8 5 3 4 4 9l-11 2q-1-3-4-6-3-2-8-2-6 0-9 2-4 2-4 6 0 3 3 5 2 2 7 3l10 2q9 2 14 7 4 4 4 11 0 5-4 10-3 4-9 7-6 2-13 2zm67 0q-10 0-16-4-7-4-11-11-4-7-4-17 0-10 4-17 4-8 10-12 7-4 16-4 5 0 10 2 5 1 9 5 4 4 7 10 2 6 2 15v4h-51v-9h45l-6 3q0-6-2-10-2-5-5-7-4-3-9-3-6 0-9 3-4 2-6 6-2 5-2 10v6q0 6 2 11 2 4 6 7 5 2 10 2 3 0 6-1 3-1 5-3 2-2 3-5l12 3q-2 5-5 8-4 4-9 6-5 2-12 2zm53-85v84h-12v-84zm48 21v10h-38v-10zm-26 63v-71q0-5 2-9 3-4 7-6 4-2 9-2 4 0 7 0 3 1 4 1l-3 10q-1 0-2 0-2 0-4 0-4 0-6 2-2 2-2 6v69zm76-41v11h-37v-11zm29 4v37h-13v-84h13v36h-2q3-8 8-12 5-4 13-4 6 0 11 3 5 2 8 8 2 5 2 13v40h-12v-39q0-7-4-10-3-4-9-4-5 0-8 2-3 1-5 5-2 3-2 9zm84 38q-9 0-16-4-6-4-10-11-4-8-4-17 0-10 4-18 4-7 10-11 7-4 16-4 9 0 15 4 7 4 11 11 3 8 3 18 0 9-3 17-4 7-11 11-6 4-15 4zm0-10q6 0 9-3 4-3 6-8 2-5 2-11 0-6-2-11-2-6-6-9-3-3-9-3-6 0-10 3-3 3-5 9-2 5-2 11 0 6 2 11 2 5 5 8 4 3 10 3zm66 10q-7 0-12-2-6-2-9-6-3-3-5-9l12-2q1 4 5 7 4 2 9 2 6 0 10-2 3-3 3-6 0-3-2-5-2-2-7-3l-10-3q-9-2-13-6-5-4-5-11 0-6 3-10 4-4 9-7 6-2 13-2 7 0 12 2 4 2 7 5 3 4 5 9l-11 2q-2-3-5-6-2-2-8-2-5 0-9 2-3 2-3 6 0 3 2 5 2 2 8 3l10 2q9 2 13 7 4 4 4 11 0 5-3 10-4 4-9 7-6 2-14 2zm67-64v10h-34v-10zm-25-15h12v61q0 4 2 5 1 2 5 2 1 0 3 0 1 0 2 0l3 10q-2 0-5 1-2 0-4 0-9 0-14-5-4-4-4-12zm65 79q-10 0-17-4-6-4-10-11-4-7-4-17 0-10 4-17 3-8 10-12 7-4 15-4 6 0 11 2 5 1 9 5 4 4 6 10 3 6 3 15v4h-51v-9h44l-6 3q0-6-1-10-2-5-6-7-3-3-9-3-5 0-9 3-3 2-5 6-2 5-2 10v6q0 6 2 11 2 4 6 7 4 2 10 2 3 0 6-1 3-1 5-3 2-2 3-5l12 3q-2 5-5 8-4 4-9 6-6 2-12 2zm64 0q-8 0-14-4-6-4-9-11-4-7-4-17 0-11 4-18 3-7 9-11 6-4 14-4 6 0 9 2 4 2 6 4 2 3 3 5h1v-31h12v84h-12v-10h-1q-1 2-3 5-2 2-6 4-3 2-9 2zm3-10q5 0 9-3 3-3 5-8 2-5 2-12 0-6-2-11-2-5-5-8-4-3-9-3-6 0-9 3-4 3-6 8-2 5-2 11 0 7 2 12 2 5 6 8 3 3 9 3z"/></g></svg>